<svg xmlns="http://www.w3.org/2000/svg" xmlns:xlink="http://www.w3.org/1999/xlink" width="524" height="188pt" viewBox="0 0 393 188"><g id="graph0" class="graph" transform="scale(1 1) rotate(0) translate(4 184)"><title>G</title><polygon fill="#fff" stroke="none" points="-4 4 -4 -184 389 -184 389 4 -4 4"/><g id="node1" class="node"><title>part_main</title><text x="47.5" y="-158.3" font-family="Times,serif" font-size="14" text-anchor="middle">Main partition</text></g><g id="node4" class="node"><title>main</title><ellipse cx="75.5" cy="-90" fill="#add8e6" stroke="#000" rx="28.695" ry="18"/><text x="75.5" y="-86.3" font-family="Times,serif" font-size="14" text-anchor="middle">main</text></g><g id="edge1" class="edge"><title>part_main-&gt;main</title><path fill="none" stroke="#000" d="M54.4214,-143.697C57.6218,-135.696 61.492,-126.02 65.0381,-117.155"/><polygon fill="#000" stroke="#000" points="68.387 -118.207 68.851 -107.622 61.887 -115.607 68.387 -118.207"/></g><g id="node2" class="node"><title>part1</title><text x="176.5" y="-158.3" font-family="Times,serif" font-size="14" text-anchor="middle">Loadable partition 1</text></g><g id="node5" class="node"><title>f1</title><ellipse cx="176.5" cy="-90" fill="#ffa07a" stroke="#000" rx="27" ry="18"/><text x="176.5" y="-86.3" font-family="Times,serif" font-size="14" text-anchor="middle">f1</text></g><g id="edge3" class="edge"><title>part1-&gt;f1</title><path fill="none" stroke="#000" d="M176.5,-143.697C176.5,-135.983 176.5,-126.712 176.5,-118.112"/><polygon fill="#000" stroke="#000" points="180 -118.104 176.5 -108.104 173 -118.104 180 -118.104"/></g><g id="node3" class="node"><title>part2</title><text x="321.5" y="-158.3" font-family="Times,serif" font-size="14" text-anchor="middle">Loadable partition 2</text></g><g id="node6" class="node"><title>f2</title><ellipse cx="284.5" cy="-90" fill="#98fb98" stroke="#000" rx="27" ry="18"/><text x="284.5" y="-86.3" font-family="Times,serif" font-size="14" text-anchor="middle">f2</text></g><g id="edge7" class="edge"><title>part2-&gt;f2</title><path fill="none" stroke="#000" d="M312.354,-143.697C307.97,-135.403 302.636,-125.311 297.813,-116.187"/><polygon fill="#000" stroke="#000" points="300.801 -114.35 293.034 -107.145 294.612 -117.621 300.801 -114.35"/></g><g id="node7" class="node"><title>f3</title><ellipse cx="104.5" cy="-18" fill="#add8e6" stroke="#000" rx="27" ry="18"/><text x="104.5" y="-14.3" font-family="Times,serif" font-size="14" text-anchor="middle">f3</text></g><g id="edge2" class="edge"><title>main-&gt;f3</title><path fill="none" stroke="#000" d="M82.3726,-72.411C85.7675,-64.2164 89.9422,-54.1395 93.7473,-44.9548"/><polygon fill="#000" stroke="#000" points="97.083 -46.048 97.677 -35.47 90.616 -43.369 97.083 -46.048"/></g><g id="edge4" class="edge"><title>f1-&gt;f3</title><path fill="none" stroke="#000" d="M161.93,-74.8345C151.75,-64.9376 137.976,-51.5462 126.469,-40.3591"/><polygon fill="#000" stroke="#000" points="128.905 -37.846 119.296 -33.385 124.026 -42.865 128.905 -37.846"/></g><g id="node8" class="node"><title>f4</title><ellipse cx="176.5" cy="-18" fill="#ffa07a" stroke="#000" rx="27" ry="18"/><text x="176.5" y="-14.3" font-family="Times,serif" font-size="14" text-anchor="middle">f4</text></g><g id="edge5" class="edge"><title>f1-&gt;f4</title><path fill="none" stroke="#000" d="M176.5,-71.6966C176.5,-63.9827 176.5,-54.7125 176.5,-46.1124"/><polygon fill="#000" stroke="#000" points="180 -46.104 176.5 -36.104 173 -46.104 180 -46.104"/></g><g id="node9" class="node"><title>f5</title><ellipse cx="248.5" cy="-18" fill="#add8e6" stroke="#000" rx="27" ry="18"/><text x="248.5" y="-14.3" font-family="Times,serif" font-size="14" text-anchor="middle">f5</text></g><g id="edge6" class="edge"><title>f1-&gt;f5</title><path fill="none" stroke="#000" d="M191.07,-74.8345C201.25,-64.9376 215.024,-51.5462 226.531,-40.3591"/><polygon fill="#000" stroke="#000" points="228.974 -42.865 233.704 -33.385 224.095 -37.846 228.974 -42.865"/></g><g id="edge8" class="edge"><title>f2-&gt;f3</title><path fill="none" stroke="#000" d="M260.806,-81.0022C232.063,-71.1346 182.266,-53.5073 140.5,-36 138.683,-35.2385 136.825,-34.4358 134.957,-33.6106"/><polygon fill="#000" stroke="#000" points="136.231 -30.345 125.68 -29.383 133.328 -36.715 136.231 -30.345"/></g><g id="edge9" class="edge"><title>f2-&gt;f5</title><path fill="none" stroke="#000" d="M276.15,-72.7646C271.788,-64.2831 266.353,-53.7144 261.459,-44.1974"/><polygon fill="#000" stroke="#000" points="264.49 -42.44 256.804 -35.147 258.265 -45.641 264.49 -42.44"/></g><g id="node10" class="node"><title>f6</title><ellipse cx="320.5" cy="-18" fill="#98fb98" stroke="#000" rx="27" ry="18"/><text x="320.5" y="-14.3" font-family="Times,serif" font-size="14" text-anchor="middle">f6</text></g><g id="edge10" class="edge"><title>f2-&gt;f6</title><path fill="none" stroke="#000" d="M292.85,-72.7646C297.212,-64.2831 302.647,-53.7144 307.541,-44.1974"/><polygon fill="#000" stroke="#000" points="310.735 -45.641 312.196 -35.147 304.51 -42.44 310.735 -45.641"/></g></g></svg>