<svg xmlns="http://www.w3.org/2000/svg" xmlns:svg="http://www.w3.org/2000/svg" id="svg8" width="1209.449" height="1340.811" version="1.1" viewBox="0 0 320 354.756"><defs id="defs2"><rect id="rect9344" width="57.491" height="11.257" x="-44.321" y="314.268"/><rect id="rect9332" width="53.069" height="18.494" x="133.782" y="73.448"/><marker style="overflow:visible" id="marker8973" orient="auto" refX="0" refY="0"><path style="fill:#000;fill-opacity:1;fill-rule:evenodd;stroke:#000;stroke-width:1pt;stroke-opacity:1" id="path8971" d="M 0,0 5,-5 -12.5,0 5,5 Z" transform="matrix(-0.8,0,0,-0.8,-10,0)"/></marker><marker style="overflow:visible" id="marker8877" orient="auto" refX="0" refY="0"><path style="fill:#000;fill-opacity:1;fill-rule:evenodd;stroke:#000;stroke-width:1pt;stroke-opacity:1" id="path8875" d="M 0,0 5,-5 -12.5,0 5,5 Z" transform="matrix(-0.8,0,0,-0.8,-10,0)"/></marker><marker style="overflow:visible" id="marker8787" orient="auto" refX="0" refY="0"><path style="fill:#000;fill-opacity:1;fill-rule:evenodd;stroke:#000;stroke-width:1pt;stroke-opacity:1" id="path8785" d="M 0,0 5,-5 -12.5,0 5,5 Z" transform="matrix(-0.8,0,0,-0.8,-10,0)"/></marker><marker style="overflow:visible" id="marker8703" orient="auto" refX="0" refY="0"><path style="fill:#000;fill-opacity:1;fill-rule:evenodd;stroke:#000;stroke-width:1pt;stroke-opacity:1" id="path8701" d="M 0,0 5,-5 -12.5,0 5,5 Z" transform="matrix(-0.8,0,0,-0.8,-10,0)"/></marker><marker style="overflow:visible" id="marker8625" orient="auto" refX="0" refY="0"><path style="fill:#000;fill-opacity:1;fill-rule:evenodd;stroke:#000;stroke-width:1pt;stroke-opacity:1" id="path8623" d="M 0,0 5,-5 -12.5,0 5,5 Z" transform="matrix(-0.8,0,0,-0.8,-10,0)"/></marker><marker style="overflow:visible" id="marker8553" orient="auto" refX="0" refY="0"><path style="fill:#000;fill-opacity:1;fill-rule:evenodd;stroke:#000;stroke-width:1pt;stroke-opacity:1" id="path8551" d="M 0,0 5,-5 -12.5,0 5,5 Z" transform="matrix(-0.8,0,0,-0.8,-10,0)"/></marker><marker style="overflow:visible" id="marker8487" orient="auto" refX="0" refY="0"><path style="fill:#000;fill-opacity:1;fill-rule:evenodd;stroke:#000;stroke-width:1pt;stroke-opacity:1" id="path8485" d="M 0,0 5,-5 -12.5,0 5,5 Z" transform="matrix(-0.8,0,0,-0.8,-10,0)"/></marker><marker style="overflow:visible" id="marker8415" orient="auto" refX="0" refY="0"><path style="fill:#000;fill-opacity:1;fill-rule:evenodd;stroke:#000;stroke-width:1pt;stroke-opacity:1" id="path8413" d="M 0,0 5,-5 -12.5,0 5,5 Z" transform="matrix(-0.8,0,0,-0.8,-10,0)"/></marker><rect id="rect1896" width="42.876" height="13.193" x="18.14" y="132.957"/><rect id="rect1370" width="111.615" height="41.206" x="73.477" y="69.034"/><rect id="rect3730" width="32.125" height="21.53" x="88.855" y="63.908"/><rect id="rect3679" width="20.163" height="14.012" x="9.569" y="9.227"/><rect id="rect3669" width="72.234" height="11.239" x="41.227" y="-14.999"/><marker style="overflow:visible" id="marker3503" orient="auto" refX="0" refY="0"><path style="fill:#000;fill-opacity:1;fill-rule:evenodd;stroke:#000;stroke-width:1pt;stroke-opacity:1" id="path3501" d="M 0,0 5,-5 -12.5,0 5,5 Z" transform="matrix(-0.8,0,0,-0.8,-10,0)"/></marker><marker style="overflow:visible" id="marker3341" orient="auto" refX="0" refY="0"><path style="fill:#000;fill-opacity:1;fill-rule:evenodd;stroke:#000;stroke-width:1pt;stroke-opacity:1" id="path3339" d="M 0,0 5,-5 -12.5,0 5,5 Z" transform="matrix(-0.8,0,0,-0.8,-10,0)"/></marker><marker style="overflow:visible" id="marker2967" orient="auto" refX="0" refY="0"><path style="fill:#000;fill-opacity:1;fill-rule:evenodd;stroke:#000;stroke-width:1pt;stroke-opacity:1" id="path2965" d="M 0,0 5,-5 -12.5,0 5,5 Z" transform="matrix(0.8,0,0,0.8,10,0)"/></marker><marker style="overflow:visible" id="Arrow1Send" orient="auto" refX="0" refY="0"><path style="fill:#000;fill-opacity:1;fill-rule:evenodd;stroke:#000;stroke-width:1pt;stroke-opacity:1" id="path2664" d="M 0,0 5,-5 -12.5,0 5,5 Z" transform="matrix(-0.2,0,0,-0.2,-1.2,0)"/></marker><marker style="overflow:visible" id="Arrow1Lstart" orient="auto" refX="0" refY="0"><path style="fill:#000;fill-opacity:1;fill-rule:evenodd;stroke:#000;stroke-width:1pt;stroke-opacity:1" id="path2649" d="M 0,0 5,-5 -12.5,0 5,5 Z" transform="matrix(0.8,0,0,0.8,10,0)"/></marker><rect id="rect3679-2" width="20.163" height="14.012" x="9.569" y="9.227"/><rect id="rect3692" width="20.163" height="14.012" x="9.569" y="9.227"/><marker style="overflow:visible" id="marker3503-8" orient="auto" refX="0" refY="0"><path style="fill:#000;fill-opacity:1;fill-rule:evenodd;stroke:#000;stroke-width:1pt;stroke-opacity:1" id="path3501-9" d="M 0,0 5,-5 -12.5,0 5,5 Z" transform="matrix(-0.8,0,0,-0.8,-10,0)"/></marker><rect id="rect3679-0" width="33.338" height="13.439" x="9.569" y="9.227"/><rect id="rect7499" width="20.163" height="14.012" x="9.569" y="9.227"/><rect id="rect3679-2-4" width="20.163" height="14.012" x="9.569" y="9.227"/><rect id="rect7502" width="20.163" height="14.012" x="9.569" y="9.227"/><rect id="rect1370-5" width="111.615" height="41.206" x="73.477" y="69.034"/><rect id="rect7505" width="111.615" height="41.206" x="73.477" y="69.034"/></defs><metadata id="metadata5"/><g id="layer1" transform="translate(60.000002,15.000695)" style="display:inline"><rect style="opacity:1;fill:#cfe2f3;fill-opacity:1;fill-rule:evenodd;stroke:#000;stroke-width:.258106;stroke-opacity:1" id="rect837" width="79.742" height="38.498" x=".129" y=".129" ry="6.741"/><rect style="opacity:1;fill:#cfe2f3;fill-opacity:1;fill-rule:evenodd;stroke:#000;stroke-width:.258106;stroke-opacity:1" id="rect837-9" width="79.742" height="38.498" x="-59.871" y="60.129" ry="6.741"/><rect style="opacity:1;fill:#cfe2f3;fill-opacity:1;fill-rule:evenodd;stroke:#000;stroke-width:.258106;stroke-opacity:1" id="rect837-9-8-9" width="79.742" height="38.498" x="-59.871" y="240.129" ry="6.741"/><path style="fill:none;fill-rule:evenodd;stroke:#000;stroke-width:.4;stroke-linecap:butt;stroke-linejoin:miter;stroke-miterlimit:4;stroke-dasharray:none;stroke-opacity:1;marker-end:url(#marker3341)" id="path3337" d="M 20.750874,38.627306 -0.75087247,60.129051"/><path style="display:inline;fill:none;fill-rule:evenodd;stroke:#000;stroke-width:.4;stroke-linecap:butt;stroke-linejoin:miter;stroke-miterlimit:4;stroke-dasharray:none;stroke-opacity:1;marker-end:url(#marker3503)" id="path3499" d="M 41.227338,-14.998642 41.386551,0.50922611"/><text style="font-style:normal;font-weight:400;font-size:5.64444px;line-height:1.25;font-family:sans-serif;fill:#000;fill-opacity:1;stroke:none;stroke-width:.265;stroke-miterlimit:4;stroke-dasharray:none" id="text3675" x="44.769" y="-7.86" xml:space="preserve"><tspan id="tspan3673" x="44.769" y="-7.86" style="font-size:5.64444px;stroke-width:.265;stroke-miterlimit:4;stroke-dasharray:none">in: %arg0, %arg1, %arg2, %arg3</tspan></text><text id="text3677" transform="translate(25.051785,-8.0877048)" xml:space="preserve" style="font-style:normal;font-weight:400;font-size:5.64444000000000035px;line-height:1.25;font-family:sans-serif;white-space:pre;shape-inside:url(#rect3679);fill:#000;fill-opacity:1;stroke:none"><tspan x="9.568" y="14.376"><tspan style="font-size:5.64444px">bb0</tspan></tspan></text><text id="text3677-0" transform="translate(-34.833839,51.912295)" xml:space="preserve" style="font-style:normal;font-weight:400;font-size:5.64444000000000035px;line-height:1.25;font-family:sans-serif;white-space:pre;shape-inside:url(#rect3679-2);fill:#000;fill-opacity:1;stroke:none"><tspan x="9.568" y="14.376"><tspan style="font-size:5.64444px">bb1</tspan></tspan></text><text style="font-style:normal;font-weight:400;font-size:5.64444px;line-height:1.25;font-family:sans-serif;fill:#000;fill-opacity:1;stroke:none;stroke-width:.264583" id="text3165-8" x="-33.07" y="171.814" xml:space="preserve"><tspan id="tspan3163-3" x="-33.07" y="171.814" style="font-size:5.64444px;stroke-width:.264583">%5</tspan></text><rect style="display:inline;opacity:1;fill:#cfe2f3;fill-opacity:1;fill-rule:evenodd;stroke:#000;stroke-width:.258106;stroke-opacity:1" id="rect837-4" width="79.742" height="38.498" x="120.129" y="60.129" ry="6.741"/><rect style="display:inline;opacity:1;fill:#cfe2f3;fill-opacity:1;fill-rule:evenodd;stroke:#000;stroke-width:.258106;stroke-opacity:1" id="rect837-9-89" width="79.742" height="38.498" x="60.129" y="120.129" ry="6.741"/><rect style="display:inline;opacity:1;fill:#cfe2f3;fill-opacity:1;fill-rule:evenodd;stroke:#000;stroke-width:.258;stroke-miterlimit:4;stroke-dasharray:none;stroke-opacity:1" id="rect837-9-8" width="79.742" height="38.498" x="180.129" y="120.128" ry="6.741"/><rect style="display:inline;opacity:1;fill:#cfe2f3;fill-opacity:1;fill-rule:evenodd;stroke:#000;stroke-width:.258106;stroke-opacity:1" id="rect837-9-8-9-8" width="79.742" height="38.498" x="120.129" y="180.129" ry="6.741"/><text id="text3677-6" transform="translate(136.72017,51.911779)" xml:space="preserve" style="font-style:normal;font-weight:400;font-size:5.64444000000000035px;line-height:1.25;font-family:sans-serif;white-space:pre;shape-inside:url(#rect3679-0);display:inline;fill:#000;fill-opacity:1;stroke:none"><tspan x="9.568" y="14.376"><tspan style="font-size:5.64444px">bb2 (%0)</tspan></tspan></text><text style="font-style:normal;font-weight:400;font-size:5.64444px;line-height:1.25;font-family:sans-serif;display:inline;fill:#000;fill-opacity:1;stroke:none;stroke-width:.264583" id="text3736" x="214.617" y="126.288" xml:space="preserve"><tspan id="tspan3734" x="214.617" y="126.288" style="font-size:5.64444px;stroke-width:.264583">bb4</tspan></text><text id="text3677-0-7" transform="translate(85.166161,111.91178)" xml:space="preserve" style="font-style:normal;font-weight:400;font-size:5.64444000000000035px;line-height:1.25;font-family:sans-serif;white-space:pre;shape-inside:url(#rect3679-2-4);display:inline;fill:#000;fill-opacity:1;stroke:none"><tspan x="9.568" y="14.376"><tspan style="font-size:5.64444px">bb3</tspan></tspan></text><text style="font-style:normal;font-weight:400;font-size:5.64444px;line-height:1.25;font-family:sans-serif;display:inline;fill:#000;fill-opacity:1;stroke:none;stroke-width:.264583" id="text3736-6" x="146.289" y="186.288" xml:space="preserve"><tspan id="tspan3734-5" x="146.289" y="186.288" style="font-size:5.64444px;stroke-width:.264583">bb5 (%2)</tspan></text><text style="font-style:normal;font-weight:400;font-size:5.64444px;line-height:1.25;font-family:sans-serif;display:inline;fill:#000;fill-opacity:1;stroke:none;stroke-width:.264583" id="text3165-8-0" x="114.092" y="171.632" xml:space="preserve"><tspan id="tspan3163-3-8" x="114.092" y="171.632" style="font-size:5.64444px;stroke-width:.264583">%1</tspan></text><rect style="display:inline;opacity:1;fill:#cfe2f3;fill-opacity:1;fill-rule:evenodd;stroke:#000;stroke-width:.258106;stroke-opacity:1" id="rect837-9-8-9-8-4" width="79.742" height="38.498" x="-59.871" y="300.128" ry="6.741"/><text style="font-style:normal;font-weight:400;font-size:5.64444px;line-height:1.25;font-family:sans-serif;display:inline;fill:#000;fill-opacity:1;stroke:none;stroke-width:.264583" id="text3736-6-7" x="-33.711" y="306.288" xml:space="preserve"><tspan id="tspan3734-5-8" x="-33.711" y="306.288" style="font-size:5.64444px;stroke-width:.264583">bb7 (%4)</tspan></text><path style="fill:none;fill-rule:evenodd;stroke:#000;stroke-width:.4;stroke-linecap:butt;stroke-linejoin:miter;stroke-miterlimit:4;stroke-dasharray:none;stroke-opacity:1;marker-end:url(#marker8415)" id="path8411" d="M 76.594903,37.675473 123.4051,61.080369"/><path style="fill:none;fill-rule:evenodd;stroke:#000;stroke-width:.4;stroke-linecap:butt;stroke-linejoin:miter;stroke-miterlimit:4;stroke-dasharray:none;stroke-opacity:1;marker-end:url(#marker8487)" id="path8483" d="m 179.24914,98.626789 21.50171,21.501701"/><path style="fill:none;fill-rule:evenodd;stroke:#000;stroke-width:.4;stroke-linecap:butt;stroke-linejoin:miter;stroke-miterlimit:4;stroke-dasharray:none;stroke-opacity:1;marker-end:url(#marker8553)" id="path8549" d="M 140.75087,98.626789 119.24913,120.12854"/><path style="fill:none;fill-rule:evenodd;stroke:#000;stroke-width:.4;stroke-linecap:butt;stroke-linejoin:miter;stroke-miterlimit:4;stroke-dasharray:none;stroke-opacity:1;marker-end:url(#marker8625)" id="path8621" d="m 119.24913,158.62679 21.50174,21.50175"/><path style="fill:none;fill-rule:evenodd;stroke:#000;stroke-width:.4;stroke-linecap:butt;stroke-linejoin:miter;stroke-miterlimit:4;stroke-dasharray:none;stroke-opacity:1;marker-end:url(#marker8703)" id="path8699" d="m 200.75089,158.62674 -21.50178,21.5018"/><path style="fill:none;fill-rule:evenodd;stroke:#000;stroke-width:.4;stroke-linecap:butt;stroke-linejoin:miter;stroke-miterlimit:4;stroke-dasharray:none;stroke-opacity:1;marker-end:url(#marker8787)" id="path8783" d="M 120.17193,212.65369 19.828068,246.10164"/><path style="fill:none;fill-rule:evenodd;stroke:#000;stroke-width:.4;stroke-linecap:butt;stroke-linejoin:miter;stroke-miterlimit:4;stroke-dasharray:none;stroke-opacity:1;marker-end:url(#marker8877)" id="path8873" d="M -20,98.627304 V 240.12854"/><path style="fill:none;fill-rule:evenodd;stroke:#000;stroke-width:.4;stroke-linecap:butt;stroke-linejoin:miter;stroke-miterlimit:4;stroke-dasharray:none;stroke-opacity:1;marker-end:url(#marker8973)" id="path8969" d="m -20,278.62679 v 21.50157"/><text style="font-style:normal;font-weight:400;font-size:5.64444px;line-height:1.25;font-family:sans-serif;display:inline;fill:#000;fill-opacity:1;stroke:none;stroke-width:.264583" id="text3736-6-7-3" x="-33.711" y="246.288" xml:space="preserve"><tspan id="tspan3734-5-8-0" x="-33.711" y="246.288" style="font-size:5.64444px;stroke-width:.264583">bb6 (%3)</tspan></text><text style="font-style:normal;font-weight:400;font-size:5.64444px;line-height:1.25;font-family:sans-serif;display:inline;fill:#000;fill-opacity:1;stroke:none;stroke-width:.264583" id="text3165-8-0-4" x="194.176" y="171.632" xml:space="preserve"><tspan id="tspan3163-3-8-8" x="194.176" y="171.632" style="font-size:5.64444px;stroke-width:.264583">%1</tspan></text><text style="font-style:normal;font-weight:400;font-size:5.64444px;line-height:1.25;font-family:sans-serif;display:inline;fill:#000;fill-opacity:1;stroke:none;stroke-width:.264583" id="text3165-8-0-0" x="64.927" y="236.356" xml:space="preserve"><tspan id="tspan3163-3-8-0" x="64.927" y="236.356" style="font-size:5.64444px;stroke-width:.264583">%6</tspan></text><text style="font-style:normal;font-weight:400;font-size:5.64444px;line-height:1.25;font-family:sans-serif;fill:#000;fill-opacity:1;stroke:none;stroke-width:.264583" id="text9338" x="137.078" y="78.674" xml:space="preserve"><tspan id="tspan9336" x="137.078" y="78.674" style="font-size:5.64444px;fill:#999;stroke-width:.264583">%1 = alloc(%0)</tspan><tspan style="font-size:5.64444px;stroke-width:.264583" id="tspan9340" x="137.078" y="85.73">use(%1)</tspan></text><text style="font-size:5.64444px;line-height:1.25;font-family:sans-serif;stroke-width:.264583" id="text9350" x="-45.425" y="321.907" xml:space="preserve"><tspan id="tspan9348" x="-45.425" y="321.907" style="stroke-width:.264583">copy(%4, %arg2)</tspan><tspan style="fill:green;stroke-width:.264583" id="tspan9569" x="-45.425" y="328.963">dealloc %3</tspan></text><text style="font-style:normal;font-weight:400;font-size:5.64444px;line-height:1.25;font-family:sans-serif;display:inline;fill:#000;fill-opacity:1;stroke:none;stroke-width:.264583" id="text3165-8-0-0-4" x="-15.403" y="291.82" xml:space="preserve"><tspan id="tspan3163-3-8-0-1" x="-15.403" y="291.82" style="font-size:5.64444px;stroke-width:.264583">%3</tspan></text><text style="font-style:normal;font-weight:400;font-size:5.64444px;line-height:1.25;font-family:sans-serif;display:inline;fill:#000;fill-opacity:1;stroke:none;stroke-width:.264583" id="text9338-9" x="-45.425" y="77.929" xml:space="preserve"><tspan id="tspan9336-0" x="-45.425" y="77.929" style="font-size:5.64444px;fill:green;stroke-width:.264583">%5 = alloc(%d0)</tspan><tspan style="font-size:5.64444px;stroke-width:.264583" id="tspan9340-6" x="-45.425" y="84.985">copy(%arg1, %5)</tspan></text><text style="font-style:normal;font-weight:400;font-size:5.64444px;line-height:1.25;font-family:sans-serif;display:inline;fill:#000;fill-opacity:1;stroke:none;stroke-width:.264583" id="text9338-8" x="135.38" y="198.54" xml:space="preserve"><tspan id="tspan9336-2" x="135.38" y="198.54" style="font-size:5.64444px;fill:green;stroke-width:.264583">%6 = alloc(%d1)</tspan><tspan style="font-size:5.64444px;stroke-width:.264583" id="tspan9340-1" x="135.38" y="205.596">copy(%1, %6)</tspan><tspan style="font-size:5.64444px;fill:#999;stroke-width:.264583" id="tspan9567" x="135.38" y="212.651">dealloc %1</tspan></text></g></svg>