<svg xmlns="http://www.w3.org/2000/svg" xmlns:svg="http://www.w3.org/2000/svg" id="svg8" width="755.905" height="724.75" version="1.1" viewBox="0 0.7 200 191.757"><defs id="defs2"><marker style="overflow:visible" id="marker3478" orient="auto" refX="0" refY="0"><path style="fill:#000;fill-opacity:1;fill-rule:evenodd;stroke:#000;stroke-width:1pt;stroke-opacity:1" id="path3476" d="M 0,0 5,-5 -12.5,0 5,5 Z" transform="matrix(-0.8,0,0,-0.8,-10,0)"/></marker><rect id="rect1896" width="42.876" height="13.193" x="18.14" y="132.957"/><rect id="rect1370" width="111.615" height="41.206" x="73.477" y="69.034"/><rect id="rect3730" width="32.125" height="21.53" x="88.855" y="63.908"/><rect id="rect3679" width="20.163" height="14.012" x="9.569" y="9.227"/><rect id="rect3669" width="72.234" height="11.239" x="41.227" y="-14.999"/><marker style="overflow:visible" id="marker3503" orient="auto" refX="0" refY="0"><path style="fill:#000;fill-opacity:1;fill-rule:evenodd;stroke:#000;stroke-width:1pt;stroke-opacity:1" id="path3501" d="M 0,0 5,-5 -12.5,0 5,5 Z" transform="matrix(-0.8,0,0,-0.8,-10,0)"/></marker><marker style="overflow:visible" id="marker3443" orient="auto" refX="0" refY="0"><path style="fill:#000;fill-opacity:1;fill-rule:evenodd;stroke:#000;stroke-width:1pt;stroke-opacity:1" id="path3441" d="M 0,0 5,-5 -12.5,0 5,5 Z" transform="matrix(-0.8,0,0,-0.8,-10,0)"/></marker><marker style="overflow:visible" id="marker3389" orient="auto" refX="0" refY="0"><path style="fill:#000;fill-opacity:1;fill-rule:evenodd;stroke:#000;stroke-width:1pt;stroke-opacity:1" id="path3387" d="M 0,0 5,-5 -12.5,0 5,5 Z" transform="matrix(-0.8,0,0,-0.8,-10,0)"/></marker><marker style="overflow:visible" id="marker3341" orient="auto" refX="0" refY="0"><path style="fill:#000;fill-opacity:1;fill-rule:evenodd;stroke:#000;stroke-width:1pt;stroke-opacity:1" id="path3339" d="M 0,0 5,-5 -12.5,0 5,5 Z" transform="matrix(-0.8,0,0,-0.8,-10,0)"/></marker><marker style="overflow:visible" id="marker3141" orient="auto" refX="0" refY="0"><path style="fill:#000;fill-opacity:1;fill-rule:evenodd;stroke:#000;stroke-width:1pt;stroke-opacity:1" id="path3139" d="M 0,0 5,-5 -12.5,0 5,5 Z" transform="matrix(-0.8,0,0,-0.8,-10,0)"/></marker><marker style="overflow:visible" id="marker2967" orient="auto" refX="0" refY="0"><path style="fill:#000;fill-opacity:1;fill-rule:evenodd;stroke:#000;stroke-width:1pt;stroke-opacity:1" id="path2965" d="M 0,0 5,-5 -12.5,0 5,5 Z" transform="matrix(0.8,0,0,0.8,10,0)"/></marker><marker style="overflow:visible" id="Arrow1Send" orient="auto" refX="0" refY="0"><path style="fill:#000;fill-opacity:1;fill-rule:evenodd;stroke:#000;stroke-width:1pt;stroke-opacity:1" id="path2664" d="M 0,0 5,-5 -12.5,0 5,5 Z" transform="matrix(-0.2,0,0,-0.2,-1.2,0)"/></marker><marker style="overflow:visible" id="Arrow1Lstart" orient="auto" refX="0" refY="0"><path style="fill:#000;fill-opacity:1;fill-rule:evenodd;stroke:#000;stroke-width:1pt;stroke-opacity:1" id="path2649" d="M 0,0 5,-5 -12.5,0 5,5 Z" transform="matrix(0.8,0,0,0.8,10,0)"/></marker><rect id="rect3679-2" width="20.163" height="14.012" x="9.569" y="9.227"/><rect id="rect3692" width="20.163" height="14.012" x="9.569" y="9.227"/></defs><metadata id="metadata5"/><g id="layer1" transform="translate(60.000002,15.000516)" style="display:inline"><rect style="opacity:1;fill:#cfe2f3;fill-opacity:1;fill-rule:evenodd;stroke:#000;stroke-width:.258106;stroke-opacity:1" id="rect837" width="79.742" height="38.498" x=".129" y=".129" ry="6.741"/><rect style="opacity:1;fill:#cfe2f3;fill-opacity:1;fill-rule:evenodd;stroke:#000;stroke-width:.258106;stroke-opacity:1" id="rect837-9" width="79.742" height="38.498" x="-59.871" y="60.129" ry="6.741"/><rect style="opacity:1;fill:#cfe2f3;fill-opacity:1;fill-rule:evenodd;stroke:#000;stroke-width:.258;stroke-miterlimit:4;stroke-dasharray:none;stroke-opacity:1" id="rect837-9-8" width="79.742" height="38.498" x="60.129" y="60.129" ry="6.741"/><rect style="opacity:1;fill:#cfe2f3;fill-opacity:1;fill-rule:evenodd;stroke:#000;stroke-width:.258106;stroke-opacity:1" id="rect837-9-8-9" width="79.742" height="38.498" x=".129" y="120.129" ry="6.741"/><path style="fill:none;fill-rule:evenodd;stroke:#000;stroke-width:.4;stroke-linecap:butt;stroke-linejoin:miter;stroke-miterlimit:4;stroke-dasharray:none;stroke-dashoffset:0;stroke-opacity:1;marker-end:url(#marker3141);paint-order:normal" id="path3329" d="M 59.249128,38.627306 80.750874,60.129051"/><path style="fill:none;fill-rule:evenodd;stroke:#000;stroke-width:.4;stroke-linecap:butt;stroke-linejoin:miter;stroke-miterlimit:4;stroke-dasharray:none;stroke-opacity:1;marker-end:url(#marker3341)" id="path3337" d="M 25.563156,38.627306 9.4368463,60.129051"/><path style="fill:none;fill-rule:evenodd;stroke:#000;stroke-width:.4;stroke-linecap:butt;stroke-linejoin:miter;stroke-miterlimit:4;stroke-dasharray:none;stroke-opacity:1;marker-end:url(#marker3389)" id="path3385" d="M -0.75087304,98.627304 20.750875,120.12905"/><path style="fill:none;fill-rule:evenodd;stroke:#000;stroke-width:.4;stroke-linecap:butt;stroke-linejoin:miter;stroke-miterlimit:4;stroke-dasharray:none;stroke-opacity:1;marker-end:url(#marker3443)" id="path3439" d="M 80.750874,98.627304 59.249128,120.12905"/><path style="display:inline;fill:none;fill-rule:evenodd;stroke:#000;stroke-width:.4;stroke-linecap:butt;stroke-linejoin:miter;stroke-miterlimit:4;stroke-dasharray:none;stroke-opacity:1;marker-end:url(#marker3503)" id="path3499" d="M 41.227338,-14.998642 41.386551,0.50922611"/><text style="font-style:normal;font-weight:400;font-size:5.64444px;line-height:1.25;font-family:sans-serif;fill:#000;fill-opacity:1;stroke:none;stroke-width:.265;stroke-miterlimit:4;stroke-dasharray:none" id="text3675" x="44.769" y="-7.86" xml:space="preserve"><tspan id="tspan3673" x="44.769" y="-7.86" style="font-size:5.64444px;stroke-width:.265;stroke-miterlimit:4;stroke-dasharray:none">%0</tspan></text><text id="text3677" transform="translate(28.330136,7.1600292)" xml:space="preserve" style="font-style:normal;font-weight:400;font-size:5.64444000000000035px;line-height:1.25;font-family:sans-serif;white-space:pre;shape-inside:url(#rect3679);fill:#000;fill-opacity:1;stroke:none"><tspan x="9.568" y="14.376"><tspan>if</tspan></tspan></text><text id="text3677-0" transform="translate(-35.776417,67.110418)" xml:space="preserve" style="font-style:normal;font-weight:400;font-size:5.64444000000000035px;line-height:1.25;font-family:sans-serif;white-space:pre;shape-inside:url(#rect3679-2);fill:#000;fill-opacity:1;stroke:none"><tspan x="9.568" y="14.376"><tspan>then</tspan></tspan></text><text style="font-style:normal;font-weight:400;font-size:5.64444px;line-height:1.25;font-family:sans-serif;fill:#000;fill-opacity:1;stroke:none;stroke-width:.264583" id="text3736-6" x="42.776" y="169.725" xml:space="preserve"><tspan id="tspan3734-5" x="42.776" y="169.725" style="font-size:5.64444px;stroke-width:.264583">%1</tspan></text><text id="text1368" transform="translate(20.903802,7.3023994)" xml:space="preserve" style="font-style:normal;font-weight:400;font-size:5.64444000000000035px;line-height:1.25;font-family:sans-serif;white-space:pre;shape-inside:url(#rect1370);fill:#000;fill-opacity:1;stroke:none"><tspan x="73.477" y="74.183"><tspan style="font-size:5.64444px">else</tspan></tspan></text><text style="font-style:normal;font-weight:400;font-size:5.64444px;line-height:1.25;font-family:sans-serif;fill:#000;fill-opacity:1;stroke:none;stroke-width:.264583" id="text1902" x="35.082" y="140.861" xml:space="preserve"><tspan id="tspan1900" x="35.082" y="140.861" style="font-size:5.64444px;stroke-width:.264583">join</tspan></text><text style="font-style:normal;font-weight:400;font-size:5.64444px;line-height:1.25;font-family:sans-serif;fill:#000;fill-opacity:1;stroke:none;stroke-width:.264583" id="text3165" x="76.27" y="111.633" xml:space="preserve"><tspan id="tspan3163" x="76.27" y="111.633" style="font-size:5.64444px;stroke-width:.264583">%arg4</tspan></text><text style="font-style:normal;font-weight:400;font-size:5.64444px;line-height:1.25;font-family:sans-serif;fill:#000;fill-opacity:1;stroke:none;stroke-width:.264583" id="text3165-8" x="-12.065" y="111.09" xml:space="preserve"><tspan id="tspan3163-3" x="-12.065" y="111.09" style="font-size:5.64444px;stroke-width:.264583">%arg4</tspan></text><text style="font-style:normal;font-weight:400;font-size:5.64444px;line-height:1.25;font-family:sans-serif;display:inline;fill:#000;fill-opacity:1;stroke:none;stroke-width:.264583" id="text3165-8-4" x="-5.612" y="51.136" xml:space="preserve"><tspan id="tspan3163-3-0" x="-5.612" y="51.136" style="font-size:5.64444px;stroke-width:.264583">%arg2</tspan></text><text style="font-style:normal;font-weight:400;font-size:5.64444px;line-height:1.25;font-family:sans-serif;display:inline;fill:#000;fill-opacity:1;stroke:none;stroke-width:.264583" id="text3165-8-9" x="78.176" y="51.09" xml:space="preserve"><tspan style="font-size:5.64444px;stroke-width:.264583" id="tspan3185-9" x="78.176" y="51.09">%arg3</tspan></text><path style="fill:none;fill-rule:evenodd;stroke:#000;stroke-width:.4;stroke-linecap:butt;stroke-linejoin:miter;stroke-miterlimit:4;stroke-dasharray:none;stroke-opacity:1;marker-end:url(#marker3478)" id="path3474" d="m 40.011796,158.71197 0.01604,17.14766"/></g></svg>